<svg xmlns="http://www.w3.org/2000/svg" xmlns:xlink="http://www.w3.org/1999/xlink" width="500" zoomAndPan="magnify" viewBox="0 0 375 374.999991" height="500" preserveAspectRatio="xMidYMid meet" version="1.0"><defs><clipPath id="53d13c4d90"><path d="M 124.5 125 L 255.75 125 L 255.75 274 L 124.5 274 Z M 124.5 125 " clip-rule="nonzero"/></clipPath></defs><g clip-path="url(#53d13c4d90)"><path fill="#e44d26" d="M 136.542969 258.941406 L 124.617188 125.207031 L 255.632812 125.207031 L 243.695312 258.914062 L 190.042969 273.792969 Z M 136.542969 258.941406 " fill-opacity="1" fill-rule="nonzero"/></g><path fill="#f16529" d="M 190.125 262.425781 L 233.480469 250.410156 L 243.675781 136.140625 L 190.125 136.140625 Z M 190.125 262.425781 " fill-opacity="1" fill-rule="nonzero"/><path fill="#ebebeb" d="M 190.125 185.742188 L 168.417969 185.742188 L 166.921875 168.945312 L 190.125 168.945312 L 190.125 152.546875 L 148.996094 152.546875 L 149.386719 156.941406 L 153.417969 202.144531 L 190.125 202.144531 Z M 190.125 228.335938 L 190.050781 228.355469 L 171.789062 223.421875 L 170.617188 210.339844 L 154.15625 210.339844 L 156.453125 236.09375 L 190.050781 245.417969 L 190.125 245.398438 Z M 190.125 228.335938 " fill-opacity="1" fill-rule="nonzero"/><path fill="#ffffff" d="M 190.070312 185.742188 L 190.070312 202.144531 L 210.265625 202.144531 L 208.359375 223.414062 L 190.0625 228.351562 L 190.0625 245.414062 L 223.6875 236.09375 L 223.933594 233.320312 L 227.792969 190.140625 L 228.195312 185.738281 L 223.773438 185.738281 Z M 190.070312 152.546875 L 190.070312 168.945312 L 229.6875 168.945312 L 230.015625 165.257812 L 230.761719 156.941406 L 231.152344 152.539062 Z M 190.070312 152.546875 " fill-opacity="1" fill-rule="nonzero"/></svg>